<svg xmlns="http://www.w3.org/2000/svg" width="39.174" height="39.174" viewBox="0 0 39.174 39.174">
    <path data-name="096-twitter" d="M16.823 6.049a7.673 7.673 0 0 0 1.927-2 8.028 8.028 0 0 1-2.215.607 3.823 3.823 0 0 0 1.691-2.124 7.691 7.691 0 0 1-2.437.93A3.844 3.844 0 0 0 9.14 6.095a3.958 3.958 0 0 0 .089.877A10.883 10.883 0 0 1 1.305 2.95a3.844 3.844 0 0 0 1.182 5.137A3.8 3.8 0 0 1 .75 7.614v.042a3.862 3.862 0 0 0 3.08 3.777 3.822 3.822 0 0 1-1.008.127 3.393 3.393 0 0 1-.727-.066 3.882 3.882 0 0 0 3.591 2.678 7.727 7.727 0 0 1-4.766 1.64 7.27 7.27 0 0 1-.92-.053 10.825 10.825 0 0 0 5.9 1.725A10.866 10.866 0 0 0 16.823 6.049z" transform="translate(10.213 9.501)" style="fill:#c4cdff"/>
    <g data-name="Ellipse 40" style="stroke:#d4d9f5;stroke-width:.5px;fill:none">
        <circle cx="19.587" cy="19.587" style="stroke:none" r="19.587"/>
        <circle cx="19.587" cy="19.587" style="fill:none" r="19.337"/>
    </g>
</svg>
