<svg xmlns="http://www.w3.org/2000/svg" width="39.174" height="39.174" viewBox="0 0 39.174 39.174">
    <path data-name="116-youtube" d="m20.429 5.614.026.171a2.648 2.648 0 0 0-1.8-1.838h-.018C17.008 3.5 10.454 3.5 10.454 3.5s-6.537-.009-8.182.442A2.65 2.65 0 0 0 .459 5.767v.018a29.12 29.12 0 0 0 .027 10.4l-.027-.172a2.648 2.648 0 0 0 1.8 1.838h.018c1.627.443 8.182.443 8.182.443s6.536 0 8.182-.443a2.649 2.649 0 0 0 1.814-1.824v-.018a27.215 27.215 0 0 0 .435-4.916v-.392a28.078 28.078 0 0 0-.462-5.089zM8.363 14.077V7.729l5.454 3.179z" transform="translate(9.14 8.688)" style="fill:#c4cdff"/>
    <g data-name="Ellipse 41" style="stroke:#d4d9f5;stroke-width:.5px;fill:none">
        <circle cx="19.587" cy="19.587" style="stroke:none" r="19.587"/>
        <circle cx="19.587" cy="19.587" style="fill:none" r="19.337"/>
    </g>
</svg>
