<svg data-name="Reddit" xmlns="http://www.w3.org/2000/svg" width="39.174" height="39.174" viewBox="0 0 39.174 39.174">
    <path data-name="072-reddit" d="M16.95 7.5a2.128 2.128 0 0 0-1.523.649 10.225 10.225 0 0 0-5.513-1.725l1.114-5.092 3.546.808a1.591 1.591 0 0 0 1.575 1.6A1.62 1.62 0 1 0 14.73 1.4L10.814.517a.375.375 0 0 0-.443.29L9.149 6.42a10.352 10.352 0 0 0-5.481 1.746A2.124 2.124 0 0 0 2.125 7.5a2.152 2.152 0 0 0-.92 4.084 4.634 4.634 0 0 0-.1 1.008c0 3.419 3.8 6.189 8.456 6.189 4.68 0 8.476-2.77 8.476-6.189a3.963 3.963 0 0 0-.124-1.025A2.153 2.153 0 0 0 16.95 7.5zm-12.5 4.3a1.586 1.586 0 1 1 1.6 1.6 1.6 1.6 0 0 1-1.6-1.6zm8.615 3.814c-1.463 1.485-5.593 1.485-7.057 0a.385.385 0 0 1 .531-.559c1.118 1.163 4.825 1.183 5.991 0a.387.387 0 0 1 .535.559zm-.03-2.214a1.609 1.609 0 1 1 1.6-1.6 1.59 1.59 0 0 1-1.6 1.6z" transform="translate(10.049 9.076)" style="fill:#c4cdff"/>
    <g data-name="Ellipse 39" style="stroke:#d4d9f5;stroke-width:.5px;fill:none">
        <circle cx="19.587" cy="19.587" style="stroke:none" r="19.587"/>
        <circle cx="19.587" cy="19.587" style="fill:none" r="19.337"/>
    </g>
</svg>
